<svg xmlns="http://www.w3.org/2000/svg" viewBox="0 0 200 200" width="100" height="100">
  <!-- Background gradient -->
  <defs>
    <radialGradient id="bgGradient" cx="50%" cy="50%" r="70%">
      <stop offset="0%" style="stop-color:#1a1a2e"/>
      <stop offset="100%" style="stop-color:#16213e"/>
    </radialGradient>
    <linearGradient id="brainGradient" x1="0%" y1="0%" x2="100%" y2="100%">
      <stop offset="0%" style="stop-color:#ffd700"/>
      <stop offset="30%" style="stop-color:#ffb347"/>
      <stop offset="70%" style="stop-color:#ff7f50"/>
      <stop offset="100%" style="stop-color:#ff6b35"/>
    </linearGradient>
    <linearGradient id="circuitGradient" x1="0%" y1="0%" x2="100%" y2="0%">
      <stop offset="0%" style="stop-color:#00d4ff"/>
      <stop offset="100%" style="stop-color:#0099cc"/>
    </linearGradient>
  </defs>
  
  <!-- Background -->
  <rect width="200" height="200" fill="url(#bgGradient)"/>
  
  <!-- Circuit board base -->
  <rect x="20" y="140" width="160" height="40" rx="5" fill="#2c3e50" stroke="#34495e" stroke-width="1"/>
  
  <!-- Circuit traces -->
  <path d="M30 150 L50 150 L50 130 L70 130" stroke="url(#circuitGradient)" stroke-width="2" fill="none"/>
  <path d="M80 150 L100 150 L100 130 L120 130" stroke="url(#circuitGradient)" stroke-width="2" fill="none"/>
  <path d="M130 150 L150 150 L150 130 L170 130" stroke="url(#circuitGradient)" stroke-width="2" fill="none"/>
  
  <!-- Circuit nodes -->
  <circle cx="50" cy="150" r="3" fill="#00d4ff"/>
  <circle cx="100" cy="150" r="3" fill="#00d4ff"/>
  <circle cx="150" cy="150" r="3" fill="#00d4ff"/>
  <circle cx="70" cy="130" r="2" fill="#ffd700"/>
  <circle cx="120" cy="130" r="2" fill="#ffd700"/>
  <circle cx="170" cy="130" r="2" fill="#ffd700"/>
  
  <!-- Brain structure -->
  <!-- Left hemisphere -->
  <path d="M70 40 Q50 30 40 50 Q35 70 45 90 Q50 110 70 115 Q85 110 90 95 Q95 80 90 65 Q85 50 70 40" 
        fill="url(#brainGradient)" stroke="#ff8c42" stroke-width="1"/>
  
  <!-- Right hemisphere -->
  <path d="M130 40 Q150 30 160 50 Q165 70 155 90 Q150 110 130 115 Q115 110 110 95 Q105 80 110 65 Q115 50 130 40" 
        fill="url(#brainGradient)" stroke="#ff8c42" stroke-width="1"/>
  
  <!-- Brain connection -->
  <rect x="88" y="60" width="24" height="35" rx="3" fill="#ff7f50"/>
  
  <!-- Neural patterns inside brain -->
  <path d="M50 60 Q60 55 70 60 Q75 70 65 75 Q55 70 50 60" fill="#ffeb3b" opacity="0.7"/>
  <path d="M130 60 Q140 55 150 60 Q155 70 145 75 Q135 70 130 60" fill="#ffeb3b" opacity="0.7"/>
  <path d="M55 80 Q65 75 75 80 Q80 90 70 95 Q60 90 55 80" fill="#ffeb3b" opacity="0.7"/>
  <path d="M125 80 Q135 75 145 80 Q150 90 140 95 Q130 90 125 80" fill="#ffeb3b" opacity="0.7"/>
  
  <!-- Connection lines from brain to circuit -->
  <path d="M70 115 L60 140" stroke="#ffd700" stroke-width="2" fill="none"/>
  <path d="M100 115 L100 140" stroke="#ffd700" stroke-width="2" fill="none"/>
  <path d="M130 115 L140 140" stroke="#ffd700" stroke-width="2" fill="none"/>
  
  <!-- Connection nodes -->
  <circle cx="60" cy="140" r="3" fill="#ffd700"/>
  <circle cx="100" cy="140" r="3" fill="#ffd700"/>
  <circle cx="140" cy="140" r="3" fill="#ffd700"/>
  
  <!-- Floating data points -->
  <circle cx="30" cy="80" r="2" fill="#00d4ff" opacity="0.8"/>
  <circle cx="170" cy="70" r="2" fill="#00d4ff" opacity="0.8"/>
  <circle cx="25" cy="100" r="1.5" fill="#ffd700" opacity="0.6"/>
  <circle cx="175" cy="90" r="1.5" fill="#ffd700" opacity="0.6"/>
</svg>
